<mxfile host="app.diagrams.net" modified="2023-12-31T11:42:34.979Z" agent="Mozilla/5.0 (Windows NT 10.0; Win64; x64) AppleWebKit/537.36 (KHTML, like Gecko) Chrome/120.0.0.0 Safari/537.36" version="21.8.2" etag="YdWYtTrGHEZNl6i3fXG9" type="github">
  <diagram name="第 1 页" id="3T-yHPeF6XV3hYMny7rR">
    <mxGraphModel>
      <root>
        <mxCell id="0" />
        <mxCell id="1" parent="0" />
      </root>
    </mxGraphModel>
  </diagram>
</mxfile>
